<svg xmlns="http://www.w3.org/2000/svg" viewBox="0 0 389 145" role="img" aria-labelledby="title">
  <title id="title">ECC Logo</title>
  <rect width="389" height="145" rx="0" fill="#ffffff"/>
  <path d="M8 39h38l29 51-29 51H8l30-51z" fill="#4aa4c4"/>
  <path d="M121 95c2 19 18 28 39 28 14 0 27-3 39-10l10 25c-15 8-33 12-52 12-46 0-78-28-78-72 0-43 31-72 75-72 41 0 67 25 67 66 0 8-1 16-3 23zm61-25c0-17-10-32-30-32-18 0-30 12-33 32z" fill="#111111"/>
  <path d="M293 150c-47 0-78-29-78-72 0-43 32-72 80-72 17 0 32 4 44 11l-10 28c-10-6-20-8-31-8-23 0-41 15-41 41 0 25 17 41 42 41 12 0 23-3 33-9l9 27c-13 8-29 13-48 13z" fill="#111111"/>
  <path d="M360 149c-12 0-22-9-22-21s10-21 22-21 21 9 21 21-9 21-21 21z" fill="#111111"/>
</svg>
